<svg width="284" height="352" viewBox="0 0 284 352" fill="none" xmlns="http://www.w3.org/2000/svg">
<path d="M78.7022 118.282C78.7022 128.996 87.3871 137.68 98.1006 137.68H138.006C148.719 137.68 157.404 146.365 157.404 157.079V196.984C157.404 207.698 148.719 216.383 138.006 216.383H98.1006C87.3871 216.383 78.7022 225.068 78.7022 235.781V252.963C78.7022 263.676 87.3871 272.361 98.1006 272.361H182.899C193.613 272.361 202.298 263.676 202.298 252.963V213.057C202.298 202.344 210.983 193.659 221.696 193.659H261.602C272.315 193.659 281 202.344 281 213.057V331.665C281 342.378 272.315 351.063 261.602 351.063H19.3984C8.68496 351.063 0 342.378 0 331.665V22.3984C0 11.685 8.68497 3 19.3984 3H59.3037C70.0172 3 78.7022 11.685 78.7022 22.3984V118.282Z" fill="#212121"/>
<path d="M280.998 141.006C280.998 151.719 272.313 160.404 261.6 160.404H221.694C210.981 160.404 202.296 151.719 202.296 141.006V101.101C202.296 90.3871 193.611 81.7022 182.897 81.7022H142.992C132.279 81.7022 123.594 73.0172 123.594 62.3037V22.3984C123.594 11.685 132.279 3 142.992 3H261.6C272.313 3 280.998 11.685 280.998 22.3984V141.006Z" fill="#CDFE64" stroke="#212121" stroke-width="5.54241"/>
</svg>
