<svg width="882" height="1008" viewBox="0 0 882 1008" fill="none" xmlns="http://www.w3.org/2000/svg">
<path d="M19.5 941V776H51.25V941H19.5ZM40 941V915H142.75V941H40ZM40 869.25V845.25H130.5V869.25H40ZM40 802V776H142.25V802H40ZM170.338 941V763.5H201.338V941H170.338ZM295.744 944.25C285.244 944.25 275.827 942.75 267.494 939.75C259.327 936.75 252.411 932.417 246.744 926.75C241.077 920.917 236.744 913.917 233.744 905.75C230.744 897.583 229.244 888.333 229.244 878C229.244 867.667 230.661 858.167 233.494 849.5C236.494 840.833 240.744 833.333 246.244 827C251.744 820.667 258.411 815.75 266.244 812.25C274.244 808.75 283.327 807 293.494 807C302.994 807 311.494 808.583 318.994 811.75C326.494 814.917 332.827 819.667 337.994 826C343.161 832.167 346.994 839.917 349.494 849.25C351.994 858.417 352.827 869.083 351.994 881.25L249.744 882V863.75L333.744 863L322.744 873.25C323.744 863.75 322.994 856 320.494 850C317.994 843.833 314.411 839.333 309.744 836.5C305.077 833.5 299.744 832 293.744 832C286.911 832 280.911 833.833 275.744 837.5C270.577 841 266.577 846.167 263.744 853C261.077 859.667 259.744 867.833 259.744 877.5C259.744 892 262.911 902.833 269.244 910C275.744 917.167 284.577 920.75 295.744 920.75C300.744 920.75 304.911 920.167 308.244 919C311.744 917.667 314.661 916 316.994 914C319.327 911.833 321.161 909.417 322.494 906.75C323.994 904.083 325.161 901.25 325.994 898.25L353.494 904.5C352.161 910.667 349.994 916.167 346.994 921C343.994 925.833 340.077 930 335.244 933.5C330.577 937 324.994 939.667 318.494 941.5C311.994 943.333 304.411 944.25 295.744 944.25ZM408.84 941L364.09 810.5H399.09L429.34 915.75H433.09L463.34 810.5H497.34L452.34 941H408.84ZM545.07 944.25C537.904 944.25 531.487 942.917 525.82 940.25C520.154 937.417 515.654 933.25 512.32 927.75C509.154 922.25 507.57 915.417 507.57 907.25C507.57 900.417 508.82 894.583 511.32 889.75C513.987 884.917 517.904 881 523.07 878C528.237 874.833 534.654 872.25 542.32 870.25C549.987 868.083 558.987 866.25 569.32 864.75C574.987 863.917 579.57 863.083 583.07 862.25C586.737 861.417 589.404 860.167 591.07 858.5C592.737 856.667 593.57 854 593.57 850.5C593.57 845.333 591.737 840.917 588.07 837.25C584.57 833.417 578.82 831.5 570.82 831.5C565.987 831.5 561.32 832.333 556.82 834C552.487 835.667 548.737 838.333 545.57 842C542.404 845.5 540.237 850.167 539.07 856L510.82 847.25C512.654 840.583 515.32 834.833 518.82 830C522.32 825 526.654 820.75 531.82 817.25C536.987 813.75 542.904 811.167 549.57 809.5C556.237 807.833 563.57 807 571.57 807C583.737 807 593.737 809 601.57 813C609.404 816.833 615.237 822.917 619.07 831.25C622.904 839.417 624.82 850 624.82 863V887.5C624.82 893.167 624.904 899.083 625.07 905.25C625.404 911.25 625.737 917.333 626.07 923.5C626.57 929.5 627.154 935.333 627.82 941H599.57C598.904 936.333 598.32 931.333 597.82 926C597.32 920.667 596.904 915.25 596.57 909.75H592.57C590.237 916.083 586.904 921.917 582.57 927.25C578.237 932.417 572.904 936.583 566.57 939.75C560.404 942.75 553.237 944.25 545.07 944.25ZM557.57 921C560.904 921 564.237 920.417 567.57 919.25C571.07 918.083 574.487 916.333 577.82 914C581.154 911.667 584.237 908.833 587.07 905.5C589.904 902 592.32 897.917 594.32 893.25L593.82 871L599.82 872C596.987 874.333 593.487 876.167 589.32 877.5C585.154 878.833 580.737 879.833 576.07 880.5C571.57 881.167 566.987 882 562.32 883C557.82 883.833 553.737 885 550.07 886.5C546.404 887.833 543.487 889.833 541.32 892.5C539.154 895 538.07 898.5 538.07 903C538.07 908.667 539.904 913.083 543.57 916.25C547.237 919.417 551.904 921 557.57 921ZM704.613 944C690.78 944 680.613 940.333 674.113 933C667.613 925.5 664.363 913.917 664.363 898.25V835.5H645.113L645.613 810.5H658.363C663.197 810.5 666.78 809.75 669.113 808.25C671.447 806.75 672.863 804.083 673.363 800.25L676.363 781.25H694.613V810.25H729.113V836.5H694.613V897C694.613 903.167 696.03 907.667 698.863 910.5C701.863 913.333 706.28 914.75 712.113 914.75C715.28 914.75 718.363 914.417 721.363 913.75C724.53 912.917 727.447 911.583 730.113 909.75V939.75C724.947 941.417 720.197 942.5 715.863 943C711.697 943.667 707.947 944 704.613 944ZM814.055 944.25C803.555 944.25 794.138 942.75 785.805 939.75C777.638 936.75 770.721 932.417 765.055 926.75C759.388 920.917 755.055 913.917 752.055 905.75C749.055 897.583 747.555 888.333 747.555 878C747.555 867.667 748.971 858.167 751.805 849.5C754.805 840.833 759.055 833.333 764.555 827C770.055 820.667 776.721 815.75 784.555 812.25C792.555 808.75 801.638 807 811.805 807C821.305 807 829.805 808.583 837.305 811.75C844.805 814.917 851.138 819.667 856.305 826C861.471 832.167 865.305 839.917 867.805 849.25C870.305 858.417 871.138 869.083 870.305 881.25L768.055 882V863.75L852.055 863L841.055 873.25C842.055 863.75 841.305 856 838.805 850C836.305 843.833 832.721 839.333 828.055 836.5C823.388 833.5 818.055 832 812.055 832C805.221 832 799.221 833.833 794.055 837.5C788.888 841 784.888 846.167 782.055 853C779.388 859.667 778.055 867.833 778.055 877.5C778.055 892 781.221 902.833 787.555 910C794.055 917.167 802.888 920.75 814.055 920.75C819.055 920.75 823.221 920.167 826.555 919C830.055 917.667 832.971 916 835.305 914C837.638 911.833 839.471 909.417 840.805 906.75C842.305 904.083 843.471 901.25 844.305 898.25L871.805 904.5C870.471 910.667 868.305 916.167 865.305 921C862.305 925.833 858.388 930 853.555 933.5C848.888 937 843.305 939.667 836.805 941.5C830.305 943.333 822.721 944.25 814.055 944.25Z" fill="#212121"/>
<path d="M329 213C329 232.33 344.67 248 364 248H436C455.33 248 471 263.67 471 283V355C471 374.33 455.33 390 436 390H364C344.67 390 329 405.67 329 425V456C329 475.33 344.67 491 364 491H517C536.33 491 552 475.33 552 456V384C552 364.67 567.67 349 587 349H659C678.33 349 694 364.67 694 384V598C694 617.33 678.33 633 659 633H222C202.67 633 187 617.33 187 598V40C187 20.67 202.67 5 222 5H294C313.33 5 329 20.67 329 40V213Z" fill="#212121"/>
<path d="M694 254C694 273.33 678.33 289 659 289H587C567.67 289 552 273.33 552 254V182C552 162.67 536.33 147 517 147H445C425.67 147 410 131.33 410 112V40C410 20.67 425.67 5 445 5H659C678.33 5 694 20.67 694 40V254Z" fill="#CDFE64" stroke="#212121" stroke-width="10"/>
</svg>
